<?xml version="1.0" encoding="UTF-8" standalone="no"?>
<svg
   xmlns:ns1="http://www.iki.fi/pav/software/textext/"
   xmlns:dc="http://purl.org/dc/elements/1.1/"
   xmlns:cc="http://creativecommons.org/ns#"
   xmlns:rdf="http://www.w3.org/1999/02/22-rdf-syntax-ns#"
   xmlns:svg="http://www.w3.org/2000/svg"
   xmlns="http://www.w3.org/2000/svg"
   xmlns:sodipodi="http://sodipodi.sourceforge.net/DTD/sodipodi-0.dtd"
   xmlns:inkscape="http://www.inkscape.org/namespaces/inkscape"
   width="210mm"
   height="297mm"
   viewBox="0 0 210 297"
   version="1.1"
   id="svg8"
   inkscape:version="1.0.1 (1.0.1+r73)"
   sodipodi:docname="СхемаСил.svg">
  <defs
     id="defs2">
    <marker
       inkscape:isstock="true"
       style="overflow:visible"
       id="marker6282"
       refX="0"
       refY="0"
       orient="auto"
       inkscape:stockid="Arrow2Lend">
      <path
         transform="matrix(-1.1,0,0,-1.1,-1.1,0)"
         d="M 8.7185878,4.0337352 -2.2072895,0.01601326 8.7185884,-4.0017078 c -1.7454984,2.3720609 -1.7354408,5.6174519 -6e-7,8.035443 z"
         style="fill:#000000;fill-opacity:1;fill-rule:evenodd;stroke:#000000;stroke-width:0.625;stroke-linejoin:round;stroke-opacity:1"
         id="path6280"
         inkscape:connector-curvature="0" />
    </marker>
    <marker
       inkscape:stockid="Arrow2Lstart"
       orient="auto"
       refY="0.0"
       refX="0.0"
       id="Arrow2Lstart"
       style="overflow:visible"
       inkscape:isstock="true">
      <path
         id="path4580"
         style="fill-rule:evenodd;stroke-width:0.625;stroke-linejoin:round;stroke:#000000;stroke-opacity:1;fill:#000000;fill-opacity:1"
         d="M 8.7185878,4.0337352 L -2.2072895,0.016013256 L 8.7185884,-4.0017078 C 6.9730900,-1.6296469 6.9831476,1.6157441 8.7185878,4.0337352 z "
         transform="scale(1.1) translate(1,0)" />
    </marker>
    <marker
       inkscape:isstock="true"
       style="overflow:visible"
       id="marker5565"
       refX="0"
       refY="0"
       orient="auto"
       inkscape:stockid="Arrow2Lend">
      <path
         transform="matrix(-1.1,0,0,-1.1,-1.1,0)"
         d="M 8.7185878,4.0337352 -2.2072895,0.01601326 8.7185884,-4.0017078 c -1.7454984,2.3720609 -1.7354408,5.6174519 -6e-7,8.035443 z"
         style="fill:#000000;fill-opacity:1;fill-rule:evenodd;stroke:#000000;stroke-width:0.625;stroke-linejoin:round;stroke-opacity:1"
         id="path5563"
         inkscape:connector-curvature="0" />
    </marker>
    <marker
       inkscape:stockid="Arrow2Lend"
       orient="auto"
       refY="0.0"
       refX="0.0"
       id="marker4874"
       style="overflow:visible;"
       inkscape:isstock="true">
      <path
         id="path4872"
         style="fill-rule:evenodd;stroke-width:0.625;stroke-linejoin:round;stroke:#000000;stroke-opacity:1;fill:#000000;fill-opacity:1"
         d="M 8.7185878,4.0337352 L -2.2072895,0.016013256 L 8.7185884,-4.0017078 C 6.9730900,-1.6296469 6.9831476,1.6157441 8.7185878,4.0337352 z "
         transform="scale(1.1) rotate(180) translate(1,0)" />
    </marker>
    <marker
       inkscape:stockid="Arrow2Lend"
       orient="auto"
       refY="0.0"
       refX="0.0"
       id="marker4846"
       style="overflow:visible;"
       inkscape:isstock="true">
      <path
         id="path4844"
         style="fill-rule:evenodd;stroke-width:0.625;stroke-linejoin:round;stroke:#000000;stroke-opacity:1;fill:#000000;fill-opacity:1"
         d="M 8.7185878,4.0337352 L -2.2072895,0.016013256 L 8.7185884,-4.0017078 C 6.9730900,-1.6296469 6.9831476,1.6157441 8.7185878,4.0337352 z "
         transform="scale(1.1) rotate(180) translate(1,0)" />
    </marker>
    <marker
       inkscape:stockid="Arrow2Lend"
       orient="auto"
       refY="0.0"
       refX="0.0"
       id="Arrow2Lend"
       style="overflow:visible;"
       inkscape:isstock="true">
      <path
         id="path4583"
         style="fill-rule:evenodd;stroke-width:0.625;stroke-linejoin:round;stroke:#000000;stroke-opacity:1;fill:#000000;fill-opacity:1"
         d="M 8.7185878,4.0337352 L -2.2072895,0.016013256 L 8.7185884,-4.0017078 C 6.9730900,-1.6296469 6.9831476,1.6157441 8.7185878,4.0337352 z "
         transform="scale(1.1) rotate(180) translate(1,0)" />
    </marker>
    <marker
       inkscape:stockid="Arrow2Lend"
       orient="auto"
       refY="0"
       refX="0"
       id="marker4846-8"
       style="overflow:visible"
       inkscape:isstock="true"
       inkscape:collect="always">
      <path
         inkscape:connector-curvature="0"
         id="path4844-8"
         style="fill:#000000;fill-opacity:1;fill-rule:evenodd;stroke:#000000;stroke-width:0.625;stroke-linejoin:round;stroke-opacity:1"
         d="M 8.7185878,4.0337352 -2.2072895,0.01601326 8.7185884,-4.0017078 c -1.7454984,2.3720609 -1.7354408,5.6174519 -6e-7,8.035443 z"
         transform="matrix(-1.1,0,0,-1.1,-1.1,0)" />
    </marker>
    <marker
       inkscape:stockid="Arrow2Lend"
       orient="auto"
       refY="0"
       refX="0"
       id="marker4846-9"
       style="overflow:visible"
       inkscape:isstock="true">
      <path
         inkscape:connector-curvature="0"
         id="path4844-7"
         style="fill:#000000;fill-opacity:1;fill-rule:evenodd;stroke:#000000;stroke-width:0.625;stroke-linejoin:round;stroke-opacity:1"
         d="M 8.7185878,4.0337352 -2.2072895,0.01601326 8.7185884,-4.0017078 c -1.7454984,2.3720609 -1.7354408,5.6174519 -6e-7,8.035443 z"
         transform="matrix(-1.1,0,0,-1.1,-1.1,0)" />
    </marker>
    <marker
       inkscape:isstock="true"
       style="overflow:visible"
       id="marker5565-6"
       refX="0"
       refY="0"
       orient="auto"
       inkscape:stockid="Arrow2Lend">
      <path
         transform="matrix(-1.1,0,0,-1.1,-1.1,0)"
         d="M 8.7185878,4.0337352 -2.2072895,0.01601326 8.7185884,-4.0017078 c -1.7454984,2.3720609 -1.7354408,5.6174519 -6e-7,8.035443 z"
         style="fill:#000000;fill-opacity:1;fill-rule:evenodd;stroke:#000000;stroke-width:0.625;stroke-linejoin:round;stroke-opacity:1"
         id="path5563-4"
         inkscape:connector-curvature="0" />
    </marker>
    <marker
       inkscape:stockid="Arrow2Lstart"
       orient="auto"
       refY="0"
       refX="0"
       id="Arrow2Lstart-0"
       style="overflow:visible"
       inkscape:isstock="true">
      <path
         inkscape:connector-curvature="0"
         id="path4580-3"
         style="fill:#000000;fill-opacity:1;fill-rule:evenodd;stroke:#000000;stroke-width:0.625;stroke-linejoin:round;stroke-opacity:1"
         d="M 8.7185878,4.0337352 -2.2072895,0.01601326 8.7185884,-4.0017078 c -1.7454984,2.3720609 -1.7354408,5.6174519 -6e-7,8.035443 z"
         transform="matrix(1.1,0,0,1.1,1.1,0)" />
    </marker>
    <marker
       inkscape:isstock="true"
       style="overflow:visible"
       id="marker5565-9"
       refX="0"
       refY="0"
       orient="auto"
       inkscape:stockid="Arrow2Lend">
      <path
         transform="matrix(-1.1,0,0,-1.1,-1.1,0)"
         d="M 8.7185878,4.0337352 -2.2072895,0.01601326 8.7185884,-4.0017078 c -1.7454984,2.3720609 -1.7354408,5.6174519 -6e-7,8.035443 z"
         style="fill:#000000;fill-opacity:1;fill-rule:evenodd;stroke:#000000;stroke-width:0.625;stroke-linejoin:round;stroke-opacity:1"
         id="path5563-2"
         inkscape:connector-curvature="0" />
    </marker>
    <g
       id="id-3ec07c07-0bf2-497a-9a30-374f0ec47ed9-1">
      <symbol
         overflow="visible"
         id="id-29a52c7e-fe45-4537-935b-06e57d54af01-0">
        <path
           style="stroke:none"
           d=""
           id="id-6b0b5114-5322-407f-a354-a591cf1c3ac5-5" />
      </symbol>
      <symbol
         overflow="visible"
         id="id-03396351-75de-44ab-8b40-3a3a2c5b4c4d-1">
        <path
           style="stroke:none"
           d="M 7.25,-4.78125 7.453125,-6.515625 C 7.484375,-6.78125 7.4375,-6.78125 7.1875,-6.78125 H 2.296875 c -0.1875,0 -0.296875,0 -0.296875,0.203125 0,0.109375 0.09375,0.109375 0.28125,0.109375 0.375,0 0.65625,0 0.65625,0.171875 0,0.046875 0,0.0625 -0.0625,0.25 L 1.5625,-0.78125 c -0.09375,0.390625 -0.109375,0.46875 -0.90625,0.46875 -0.171875,0 -0.28125,0 -0.28125,0.1875 C 0.375,0 0.5,0 0.53125,0 L 1.84375,-0.03125 3.328125,0 c 0.09375,0 0.203125,0 0.203125,-0.1875 0,-0.078125 -0.046875,-0.109375 -0.046875,-0.109375 C 3.453125,-0.3125 3.421875,-0.3125 3.203125,-0.3125 c -0.21875,0 -0.265625,0 -0.515625,-0.015625 -0.296875,-0.03125 -0.328125,-0.078125 -0.328125,-0.203125 0,0 0,-0.078125 0.046875,-0.21875 l 0.609375,-2.484375 h 0.96875 c 0.75,0 0.828125,0.15625 0.828125,0.4375 0,0.078125 0,0.1875 -0.0625,0.5 C 4.71875,-2.25 4.71875,-2.1875 4.71875,-2.1875 c 0,0.078125 0.0625,0.109375 0.109375,0.109375 0.109375,0 0.109375,-0.03125 0.15625,-0.203125 L 5.53125,-4.453125 c 0.03125,-0.109375 0.03125,-0.125 0.03125,-0.15625 0,0 -0.015625,-0.109375 -0.125,-0.109375 -0.09375,0 -0.109375,0.046875 -0.140625,0.21875 C 5.078125,-3.734375 4.859375,-3.546875 4,-3.546875 H 3.09375 l 0.640625,-2.53125 C 3.828125,-6.4375 3.84375,-6.46875 4.28125,-6.46875 h 1.3125 c 1.21875,0 1.453125,0.328125 1.453125,1.09375 0,0.234375 0,0.265625 -0.03125,0.546875 C 7,-4.703125 7,-4.6875 7,-4.65625 c 0,0.046875 0.03125,0.125 0.125,0.125 0.109375,0 0.109375,-0.0625 0.125,-0.25 z m 0,0"
           id="id-a1ec9407-b639-44a6-b8e5-5fc5f1599faf-1" />
      </symbol>
      <symbol
         overflow="visible"
         id="id-28efcaa8-5dde-4754-b03f-3188af6338a3-0">
        <path
           style="stroke:none"
           d=""
           id="id-34da964f-bcf5-4b0e-9c31-ce5a4dea6c15-8" />
      </symbol>
      <symbol
         overflow="visible"
         id="id-a9abec71-d0b3-4189-ab8d-ab30f8bf4701-5">
        <path
           style="stroke:none"
           d="m 3.984375,-1 c 0,-0.09375 -0.09375,-0.09375 -0.109375,-0.09375 -0.109375,0 -0.109375,0.03125 -0.15625,0.21875 C 3.625,-0.53125 3.5,-0.125 3.203125,-0.125 3.03125,-0.125 2.96875,-0.28125 2.96875,-0.46875 c 0,-0.125 0.015625,-0.1875 0.046875,-0.28125 l 0.96875,-3.875 C 3.984375,-4.640625 4,-4.734375 4,-4.734375 4,-4.78125 3.984375,-4.84375 3.890625,-4.84375 3.75,-4.84375 3.171875,-4.78125 3,-4.765625 c -0.046875,0 -0.15625,0.015625 -0.15625,0.15625 0,0.09375 0.109375,0.09375 0.1875,0.09375 0.328125,0 0.328125,0.0625 0.328125,0.109375 0,0.046875 0,0.09375 -0.015625,0.15625 L 2.9375,-2.65625 c -0.140625,-0.234375 -0.375,-0.421875 -0.71875,-0.421875 -0.890625,0 -1.796875,0.984375 -1.796875,1.984375 0,0.6875 0.453125,1.15625 1.0625,1.15625 0.375,0 0.703125,-0.203125 0.984375,-0.484375 C 2.59375,0 3,0.0625 3.1875,0.0625 c 0.25,0 0.421875,-0.140625 0.546875,-0.359375 0.15625,-0.28125 0.25,-0.671875 0.25,-0.703125 z M 2.828125,-2.171875 2.5,-0.875 C 2.453125,-0.671875 2.296875,-0.53125 2.140625,-0.40625 2.078125,-0.34375 1.796875,-0.125 1.5,-0.125 c -0.265625,0 -0.515625,-0.1875 -0.515625,-0.671875 0,-0.375 0.203125,-1.140625 0.375,-1.421875 0.3125,-0.5625 0.671875,-0.65625 0.859375,-0.65625 0.484375,0 0.625,0.53125 0.625,0.609375 0,0.015625 -0.015625,0.078125 -0.015625,0.09375 z m 0,0"
           id="id-4976faf1-1e47-4421-b44b-9e37ba8d2337-0" />
      </symbol>
      <symbol
         overflow="visible"
         id="id-5c44ea43-521c-4845-922c-db46a44c23f5-6">
        <path
           style="stroke:none"
           d=""
           id="id-466c9add-24e0-4df4-9b97-b0d17f64a9c6-4" />
      </symbol>
      <symbol
         overflow="visible"
         id="id-f46949aa-9259-477e-bd61-8f629901aef1-6">
        <path
           style="stroke:none"
           d="M 3.515625,-1.265625 H 3.28125 c -0.015625,0.15625 -0.09375,0.5625 -0.1875,0.625 C 3.046875,-0.59375 2.515625,-0.59375 2.40625,-0.59375 H 1.125 c 0.734375,-0.640625 0.984375,-0.84375 1.390625,-1.171875 0.515625,-0.40625 1,-0.84375 1,-1.5 0,-0.84375 -0.734375,-1.359375 -1.625,-1.359375 -0.859375,0 -1.453125,0.609375 -1.453125,1.25 0,0.34375 0.296875,0.390625 0.375,0.390625 0.15625,0 0.359375,-0.125 0.359375,-0.375 0,-0.125 -0.046875,-0.375 -0.40625,-0.375 C 0.984375,-4.21875 1.453125,-4.375 1.78125,-4.375 c 0.703125,0 1.0625,0.546875 1.0625,1.109375 0,0.609375 -0.4375,1.078125 -0.65625,1.328125 L 0.515625,-0.265625 C 0.4375,-0.203125 0.4375,-0.1875 0.4375,0 h 2.875 z m 0,0"
           id="id-963eab61-aeb4-411e-9d7b-40135c5edc74-2" />
      </symbol>
    </g>
    <g
       id="id-b687387b-3940-422f-be70-1ae1692bda30-9">
      <symbol
         overflow="visible"
         id="id-4873feaa-518f-4473-b698-e363a02b110e-9">
        <path
           style="stroke:none"
           d=""
           id="id-94e8d381-2b86-4168-82f0-78b3d8380e68-0" />
      </symbol>
      <symbol
         overflow="visible"
         id="id-e34f063e-0996-4d4d-bdd1-e1e6c22acb6b-8">
        <path
           style="stroke:none"
           d="M 7.25,-4.78125 7.453125,-6.515625 C 7.484375,-6.78125 7.4375,-6.78125 7.1875,-6.78125 H 2.296875 c -0.1875,0 -0.296875,0 -0.296875,0.203125 0,0.109375 0.09375,0.109375 0.28125,0.109375 0.375,0 0.65625,0 0.65625,0.171875 0,0.046875 0,0.0625 -0.0625,0.25 L 1.5625,-0.78125 c -0.09375,0.390625 -0.109375,0.46875 -0.90625,0.46875 -0.171875,0 -0.28125,0 -0.28125,0.1875 C 0.375,0 0.5,0 0.53125,0 L 1.84375,-0.03125 3.328125,0 c 0.09375,0 0.203125,0 0.203125,-0.1875 0,-0.078125 -0.046875,-0.109375 -0.046875,-0.109375 C 3.453125,-0.3125 3.421875,-0.3125 3.203125,-0.3125 c -0.21875,0 -0.265625,0 -0.515625,-0.015625 -0.296875,-0.03125 -0.328125,-0.078125 -0.328125,-0.203125 0,0 0,-0.078125 0.046875,-0.21875 l 0.609375,-2.484375 h 0.96875 c 0.75,0 0.828125,0.15625 0.828125,0.4375 0,0.078125 0,0.1875 -0.0625,0.5 C 4.71875,-2.25 4.71875,-2.1875 4.71875,-2.1875 c 0,0.078125 0.0625,0.109375 0.109375,0.109375 0.109375,0 0.109375,-0.03125 0.15625,-0.203125 L 5.53125,-4.453125 c 0.03125,-0.109375 0.03125,-0.125 0.03125,-0.15625 0,0 -0.015625,-0.109375 -0.125,-0.109375 -0.09375,0 -0.109375,0.046875 -0.140625,0.21875 C 5.078125,-3.734375 4.859375,-3.546875 4,-3.546875 H 3.09375 l 0.640625,-2.53125 C 3.828125,-6.4375 3.84375,-6.46875 4.28125,-6.46875 h 1.3125 c 1.21875,0 1.453125,0.328125 1.453125,1.09375 0,0.234375 0,0.265625 -0.03125,0.546875 C 7,-4.703125 7,-4.6875 7,-4.65625 c 0,0.046875 0.03125,0.125 0.125,0.125 0.109375,0 0.109375,-0.0625 0.125,-0.25 z m 0,0"
           id="id-6ee73c0b-7c2b-4b56-a3ec-1a442e407b97-1" />
      </symbol>
    </g>
    <g
       id="id-3684eaf9-fe8b-477a-90b7-5817f154137c-0">
      <symbol
         overflow="visible"
         id="id-09faa853-22b4-4ef8-8d0f-ebaddc606459-3">
        <path
           style="stroke:none"
           d=""
           id="id-d9ecb934-2827-487f-852f-09868af2d684-9" />
      </symbol>
      <symbol
         overflow="visible"
         id="id-9b8570a7-21af-4a91-bf17-61eac602594d-1">
        <path
           style="stroke:none"
           d="M 7.25,-4.78125 7.453125,-6.515625 C 7.484375,-6.78125 7.4375,-6.78125 7.1875,-6.78125 H 2.296875 c -0.1875,0 -0.296875,0 -0.296875,0.203125 0,0.109375 0.09375,0.109375 0.28125,0.109375 0.375,0 0.65625,0 0.65625,0.171875 0,0.046875 0,0.0625 -0.0625,0.25 L 1.5625,-0.78125 c -0.09375,0.390625 -0.109375,0.46875 -0.90625,0.46875 -0.171875,0 -0.28125,0 -0.28125,0.1875 C 0.375,0 0.5,0 0.53125,0 L 1.84375,-0.03125 3.328125,0 c 0.09375,0 0.203125,0 0.203125,-0.1875 0,-0.078125 -0.046875,-0.109375 -0.046875,-0.109375 C 3.453125,-0.3125 3.421875,-0.3125 3.203125,-0.3125 c -0.21875,0 -0.265625,0 -0.515625,-0.015625 -0.296875,-0.03125 -0.328125,-0.078125 -0.328125,-0.203125 0,0 0,-0.078125 0.046875,-0.21875 l 0.609375,-2.484375 h 0.96875 c 0.75,0 0.828125,0.15625 0.828125,0.4375 0,0.078125 0,0.1875 -0.0625,0.5 C 4.71875,-2.25 4.71875,-2.1875 4.71875,-2.1875 c 0,0.078125 0.0625,0.109375 0.109375,0.109375 0.109375,0 0.109375,-0.03125 0.15625,-0.203125 L 5.53125,-4.453125 c 0.03125,-0.109375 0.03125,-0.125 0.03125,-0.15625 0,0 -0.015625,-0.109375 -0.125,-0.109375 -0.09375,0 -0.109375,0.046875 -0.140625,0.21875 C 5.078125,-3.734375 4.859375,-3.546875 4,-3.546875 H 3.09375 l 0.640625,-2.53125 C 3.828125,-6.4375 3.84375,-6.46875 4.28125,-6.46875 h 1.3125 c 1.21875,0 1.453125,0.328125 1.453125,1.09375 0,0.234375 0,0.265625 -0.03125,0.546875 C 7,-4.703125 7,-4.6875 7,-4.65625 c 0,0.046875 0.03125,0.125 0.125,0.125 0.109375,0 0.109375,-0.0625 0.125,-0.25 z m 0,0"
           id="id-70fd5e22-4b48-4273-ab88-bff5e4b57201-9" />
      </symbol>
      <symbol
         overflow="visible"
         id="id-2195855d-79b0-4b6b-a604-e6514c883dc1-6">
        <path
           style="stroke:none"
           d=""
           id="id-0a8b8a33-59ec-42a3-8e4d-877ae8bac8b8-9" />
      </symbol>
      <symbol
         overflow="visible"
         id="id-893bf96c-da1c-4390-8ad8-eec9107bf1aa-3">
        <path
           style="stroke:none"
           d="M 3.296875,0 V -0.25 H 3.03125 c -0.703125,0 -0.703125,-0.09375 -0.703125,-0.328125 V -4.4375 c 0,-0.1875 0,-0.1875 -0.203125,-0.1875 -0.453125,0.4375 -1.078125,0.4375 -1.359375,0.4375 v 0.25 c 0.15625,0 0.625,0 1,-0.1875 v 3.546875 c 0,0.234375 0,0.328125 -0.6875,0.328125 H 0.8125 V 0 l 1.234375,-0.03125 z m 0,0"
           id="id-f0809413-16bd-4304-8f60-ed16b948e166-3" />
      </symbol>
    </g>
  </defs>
  <sodipodi:namedview
     id="base"
     pagecolor="#ffffff"
     bordercolor="#666666"
     borderopacity="1.0"
     inkscape:pageopacity="0.0"
     inkscape:pageshadow="2"
     inkscape:zoom="5.6"
     inkscape:cx="298.14529"
     inkscape:cy="422.34838"
     inkscape:document-units="mm"
     inkscape:current-layer="layer1"
     showgrid="false"
     inkscape:snap-nodes="false"
     inkscape:window-width="1920"
     inkscape:window-height="1031"
     inkscape:window-x="0"
     inkscape:window-y="448"
     inkscape:window-maximized="1"
     inkscape:document-rotation="0" />
  <metadata
     id="metadata5">
    <rdf:RDF>
      <cc:Work
         rdf:about="">
        <dc:format>image/svg+xml</dc:format>
        <dc:type
           rdf:resource="http://purl.org/dc/dcmitype/StillImage" />
        <dc:title />
      </cc:Work>
    </rdf:RDF>
  </metadata>
  <g
     inkscape:label="Layer 1"
     inkscape:groupmode="layer"
     id="layer1">
    <path
       style="fill:none;stroke:#000000;stroke-width:0.26458332px;stroke-linecap:butt;stroke-linejoin:miter;stroke-opacity:1"
       d="m 64.01105,110.98041 3.073601,3.87541 27.127856,-3.0736 1.336349,-4.14268 z"
       id="path12"
       inkscape:connector-curvature="0" />
    <circle
       style="fill:none;stroke:#000000;stroke-width:0.065;stroke-miterlimit:4;stroke-dasharray:none;stroke-opacity:1"
       id="path4539"
       cx="94.680229"
       cy="109.84452"
       r="1.2695302" />
    <circle
       style="fill:none;stroke:#000000;stroke-width:0.065;stroke-miterlimit:4;stroke-dasharray:none;stroke-opacity:1"
       id="path4539-4"
       cx="65.748299"
       cy="112.98493"
       r="1.2695302" />
    <path
       style="fill:none;stroke:#000000;stroke-width:0.165;stroke-linecap:butt;stroke-linejoin:miter;stroke-opacity:1;marker-end:url(#marker4846);stroke-miterlimit:4;stroke-dasharray:none"
       d="m 80.314492,111.24768 7.216278,-8.68626"
       id="path4560"
       inkscape:connector-curvature="0" />
    <path
       style="fill:none;stroke:#000000;stroke-width:0.165;stroke-linecap:butt;stroke-linejoin:miter;stroke-opacity:1;marker-end:url(#marker4846-8);stroke-miterlimit:4;stroke-dasharray:0.49500001,0.165;stroke-dashoffset:0"
       d="m 94.64198,109.71707 7.21628,-8.68626"
       id="path4560-8"
       inkscape:connector-curvature="0" />
    <path
       style="fill:none;stroke:#000000;stroke-width:0.165;stroke-linecap:butt;stroke-linejoin:miter;stroke-opacity:1;marker-end:url(#marker4846-9);stroke-miterlimit:4;stroke-dasharray:0.49500001,0.165;stroke-dashoffset:0"
       d="m 65.776872,113.19157 7.216278,-8.68626"
       id="path4560-7"
       inkscape:connector-curvature="0" />
    <path
       style="fill:none;stroke:#000000;stroke-width:0.065;stroke-linecap:butt;stroke-linejoin:miter;stroke-opacity:1;stroke-miterlimit:4;stroke-dasharray:none;marker-end:url(#marker5565)"
       d="m 102.09696,100.9578 2.67269,0.66817"
       id="path5555"
       inkscape:connector-curvature="0" />
    <path
       style="fill:none;stroke:#000000;stroke-width:0.065;stroke-linecap:butt;stroke-linejoin:miter;stroke-miterlimit:4;stroke-dasharray:none;stroke-opacity:1;marker-start:url(#Arrow2Lstart)"
       d="m 70.117903,103.56938 2.672694,0.66817"
       id="path5555-3"
       inkscape:connector-curvature="0" />
    <path
       style="fill:none;stroke:#000000;stroke-width:0.15961279;stroke-linecap:butt;stroke-linejoin:miter;stroke-miterlimit:4;stroke-dasharray:none;stroke-opacity:1;marker-end:url(#marker6282)"
       d="m 65.765346,113.06833 4.117662,-9.22273"
       id="path6120"
       inkscape:connector-curvature="0" />
    <path
       style="fill:none;stroke:#000000;stroke-width:0.16028062;stroke-linecap:butt;stroke-linejoin:miter;stroke-miterlimit:4;stroke-dasharray:none;stroke-opacity:1;marker-end:url(#Arrow2Lend)"
       d="m 94.775573,109.71424 9.788017,-7.75592"
       id="path6122"
       inkscape:connector-curvature="0" />
    <path
       style="fill:none;stroke:#000000;stroke-width:0.065;stroke-linecap:butt;stroke-linejoin:miter;stroke-miterlimit:4;stroke-dasharray:none;stroke-opacity:1;marker-start:url(#Arrow2Lstart-0)"
       d="m 77.568175,110.51533 2.672694,0.66817"
       id="path5555-3-0"
       inkscape:connector-curvature="0" />
    <path
       style="fill:none;stroke:#000000;stroke-width:0.065;stroke-linecap:butt;stroke-linejoin:miter;stroke-miterlimit:4;stroke-dasharray:none;stroke-opacity:1;marker-end:url(#marker5565-9)"
       d="m 80.446257,111.26591 2.67269,0.66817"
       id="path5555-5"
       inkscape:connector-curvature="0" />
    <path
       style="fill:none;stroke:#000000;stroke-width:0.065;stroke-linecap:butt;stroke-linejoin:miter;stroke-opacity:1;stroke-miterlimit:4;stroke-dasharray:none"
       d="m 80.367186,109.38207 c -0.06299,0.0315 -0.128592,0.0583 -0.188989,0.0945 -0.111926,0.0672 -0.0094,0.0188 -0.04725,0.0945 -0.0063,0.0125 -0.129196,0.13546 -0.14174,0.14174 -0.01408,0.007 -0.03611,-0.0111 -0.04725,0 -0.01114,0.0111 0.007,0.0332 0,0.0472 -0.01992,0.0399 -0.07457,0.0546 -0.0945,0.0945 -0.007,0.0141 0.007,0.0332 0,0.0472 -0.0099,0.0199 -0.03729,0.0273 -0.04725,0.0472 -0.0072,0.0144 0,0.12046 0,0.14174 0,0.0945 0,0.18899 0,0.28348 0,0.0787 0,0.15749 0,0.23624 0,0.0157 -0.01114,0.0361 0,0.0473 0.01114,0.0111 0.03611,-0.0111 0.04725,0 0.01114,0.0111 -0.007,0.0332 0,0.0472 0.0099,0.0199 0.03729,0.0273 0.04725,0.0472 0.007,0.0141 -0.01114,0.0361 0,0.0473 0.09776,0.0977 -0.0038,-0.14939 0.09449,0.0472 0.01408,0.0282 -0.02228,0.0722 0,0.0945 0.02228,0.0223 0.07222,-0.0223 0.09449,0 0.09776,0.0978 -0.149384,-0.004 0.04725,0.0945 0.01408,0.007 0.03611,-0.0111 0.04725,0 0.02228,0.0223 -0.02228,0.0722 0,0.0945 0.01114,0.0111 0.03611,-0.0111 0.04725,0 0.01114,0.0111 -0.01114,0.0361 0,0.0472 0.01114,0.0111 0.03611,-0.0111 0.04725,0 0.02228,0.0223 -0.01408,0.0663 0,0.0945 0.09831,0.19663 -0.0033,-0.0505 0.09449,0.0472 0.01114,0.0111 -0.01114,0.0361 0,0.0472 0.09776,0.0978 -0.0038,-0.14938 0.09449,0.0473 0.007,0.0141 -0.007,0.0332 0,0.0472 0.01992,0.0399 0.07457,0.0547 0.0945,0.0945 0.007,0.0141 0,0.0315 0,0.0473 0.01574,0.0157 0.03729,0.0273 0.04725,0.0472 0.01408,0.0282 -0.01407,0.0663 0,0.0945 0.0099,0.0199 0.03729,0.0273 0.04725,0.0472 0.0062,0.0124 0,0.16429 0,0.18899 0,0.0329 0.0085,0.21915 0,0.23624 -0.01,0.0199 -0.03729,0.0273 -0.04725,0.0472 -0.01484,0.0297 0.01484,0.15929 0,0.18898 -0.0099,0.0199 -0.03729,0.0273 -0.04725,0.0473 -0.01408,0.0282 0.01408,0.0663 0,0.0945 -0.0099,0.0199 -0.03729,0.0273 -0.04725,0.0473 -0.01889,0.0378 0.01889,0.10395 0,0.14174 -0.0099,0.0199 -0.03728,0.0273 -0.04725,0.0473 -0.007,0.0141 0.01114,0.0361 0,0.0472 -0.01114,0.0111 -0.03611,-0.0111 -0.04725,0 -0.02228,0.0223 0.01408,0.0663 0,0.0945 -0.02326,0.0465 -0.16574,0.1425 -0.188986,0.18899 -0.007,0.0141 0.007,0.0332 0,0.0473 -0.05657,0.11313 -0.0945,-0.0298 -0.0945,0.0945"
       id="path7502"
       inkscape:connector-curvature="0" />
    <g
       transform="matrix(0.352778 0 0 0.352778 65.2446 102.806)"
       ns1:version="1.1.0"
       ns1:texconverter="pdflatex"
       ns1:pdfconverter="inkscape"
       ns1:text="$V_1$"
       ns1:preamble="/home/mirmik/.config/inkscape/extensions/textext/default_packages.tex"
       ns1:scale="1.0000000283464388"
       ns1:alignment="middle center"
       ns1:inkscapeversion="0.92.5"
       ns1:jacobian_sqrt="0.352778"
       id="g2277">
      <defs
         id="id-4438ce2f-a23f-4971-8eef-ae7d31da1616">
        <g
           id="id-578a65c1-10ca-44e3-a608-37281aa0151a">
          <symbol
             overflow="visible"
             id="id-8ae028f2-7149-4f39-97a1-daaa8d991a77">
            <path
               style="stroke:none"
               d=""
               id="id-ce23547d-1757-4d63-83f7-b992bcc75b96" />
          </symbol>
          <symbol
             overflow="visible"
             id="id-dd4316cf-9d56-486c-b741-ef16a8052fc8">
            <path
               style="stroke:none"
               d="m 7.671875,-6.6875 c 0,-0.078125 -0.0625,-0.125 -0.140625,-0.125 -0.25,0 -0.546875,0.03125 -0.8125,0.03125 -0.328125,0 -0.671875,-0.03125 -0.984375,-0.03125 -0.0625,0 -0.1875,0 -0.1875,0.1875 0,0.109375 0.078125,0.125 0.15625,0.125 0.265625,0.015625 0.453125,0.125 0.453125,0.328125 0,0.15625 -0.140625,0.375 -0.140625,0.375 l -3.0625,4.875 -0.6875,-5.28125 C 2.265625,-6.375 2.5,-6.5 2.953125,-6.5 c 0.140625,0 0.25,0 0.25,-0.203125 0,-0.078125 -0.078125,-0.109375 -0.125,-0.109375 -0.40625,0 -0.828125,0.03125 -1.25,0.03125 -0.171875,0 -0.359375,0 -0.546875,0 -0.171875,0 -0.359375,-0.03125 -0.53125,-0.03125 -0.078125,0 -0.1875,0 -0.1875,0.1875 0,0.125 0.078125,0.125 0.25,0.125 0.546875,0 0.5625,0.09375 0.59375,0.34375 L 2.1875,-0.015625 C 2.21875,0.1875 2.265625,0.21875 2.390625,0.21875 c 0.15625,0 0.203125,-0.046875 0.28125,-0.171875 l 3.59375,-5.71875 C 6.75,-6.453125 7.171875,-6.484375 7.53125,-6.5 c 0.125,-0.015625 0.140625,-0.1875 0.140625,-0.1875 z m 0,0"
               id="id-487d883f-0599-427e-8bbe-6a1352784ba6" />
          </symbol>
          <symbol
             overflow="visible"
             id="id-111ecbf5-7b67-4f33-913a-fd4bd8031b50">
            <path
               style="stroke:none"
               d=""
               id="id-852051e2-2e34-42c9-8321-cec1aa3f19d0" />
          </symbol>
          <symbol
             overflow="visible"
             id="id-953d4cdc-9344-4044-b288-2f4395d89d1f">
            <path
               style="stroke:none"
               d="M 3.296875,0 V -0.25 H 3.03125 c -0.703125,0 -0.703125,-0.09375 -0.703125,-0.328125 V -4.4375 c 0,-0.1875 0,-0.1875 -0.203125,-0.1875 -0.453125,0.4375 -1.078125,0.4375 -1.359375,0.4375 v 0.25 c 0.15625,0 0.625,0 1,-0.1875 v 3.546875 c 0,0.234375 0,0.328125 -0.6875,0.328125 H 0.8125 V 0 l 1.234375,-0.03125 z m 0,0"
               id="id-4222c414-51dd-4e07-a813-88430d64b860" />
          </symbol>
        </g>
      </defs>
      <g
         id="id-d3db86c2-b508-415c-a4f4-7dba9760f736"
         transform="translate(-149.275, -127.953)">
        <g
           style="fill:#000000;fill-opacity:1"
           id="id-a234eda3-5851-4e3f-9c2b-c96ab52fa8bb">
          <g
             transform="translate(148.712, 134.765)"
             id="g2269">
            <path
               style="stroke:none"
               d="m 7.671875,-6.6875 c 0,-0.078125 -0.0625,-0.125 -0.140625,-0.125 -0.25,0 -0.546875,0.03125 -0.8125,0.03125 -0.328125,0 -0.671875,-0.03125 -0.984375,-0.03125 -0.0625,0 -0.1875,0 -0.1875,0.1875 0,0.109375 0.078125,0.125 0.15625,0.125 0.265625,0.015625 0.453125,0.125 0.453125,0.328125 0,0.15625 -0.140625,0.375 -0.140625,0.375 l -3.0625,4.875 -0.6875,-5.28125 C 2.265625,-6.375 2.5,-6.5 2.953125,-6.5 c 0.140625,0 0.25,0 0.25,-0.203125 0,-0.078125 -0.078125,-0.109375 -0.125,-0.109375 -0.40625,0 -0.828125,0.03125 -1.25,0.03125 -0.171875,0 -0.359375,0 -0.546875,0 -0.171875,0 -0.359375,-0.03125 -0.53125,-0.03125 -0.078125,0 -0.1875,0 -0.1875,0.1875 0,0.125 0.078125,0.125 0.25,0.125 0.546875,0 0.5625,0.09375 0.59375,0.34375 L 2.1875,-0.015625 C 2.21875,0.1875 2.265625,0.21875 2.390625,0.21875 c 0.15625,0 0.203125,-0.046875 0.28125,-0.171875 l 3.59375,-5.71875 C 6.75,-6.453125 7.171875,-6.484375 7.53125,-6.5 c 0.125,-0.015625 0.140625,-0.1875 0.140625,-0.1875 z m 0,0"
               id="id-da41cdca-c586-4ee7-b60f-0dff53977793" />
          </g>
        </g>
        <g
           style="fill:#000000;fill-opacity:1"
           id="id-463c344f-9993-477e-9666-638b78ab6326">
          <g
             transform="translate(154.524, 136.259)"
             id="g2273">
            <path
               style="stroke:none"
               d="M 3.296875,0 V -0.25 H 3.03125 c -0.703125,0 -0.703125,-0.09375 -0.703125,-0.328125 V -4.4375 c 0,-0.1875 0,-0.1875 -0.203125,-0.1875 -0.453125,0.4375 -1.078125,0.4375 -1.359375,0.4375 v 0.25 c 0.15625,0 0.625,0 1,-0.1875 v 3.546875 c 0,0.234375 0,0.328125 -0.6875,0.328125 H 0.8125 V 0 l 1.234375,-0.03125 z m 0,0"
               id="id-bcdcd04b-a91f-4115-865d-00c19e277587" />
          </g>
        </g>
      </g>
    </g>
    <g
       transform="matrix(0.352778 0 0 0.352778 71.0131 100.305)"
       ns1:version="1.1.0"
       ns1:texconverter="pdflatex"
       ns1:pdfconverter="inkscape"
       ns1:text="$V_{d1}$"
       ns1:preamble="/home/mirmik/.config/inkscape/extensions/textext/default_packages.tex"
       ns1:scale="1.0"
       ns1:alignment="middle center"
       ns1:inkscapeversion="0.92.5"
       ns1:jacobian_sqrt="0.352778"
       id="g2463">
      <defs
         id="id-34eb7a98-b808-41c2-9c7c-cf819086781c">
        <g
           id="id-62c00ec4-88e0-4282-8eb6-5e6a414a3718">
          <symbol
             overflow="visible"
             id="id-44eab892-99b8-451b-8d54-3b7fc122f610">
            <path
               style="stroke:none"
               d=""
               id="id-97afa6fe-fc26-43d9-adc0-5943039c7717" />
          </symbol>
          <symbol
             overflow="visible"
             id="id-fa73a0c6-14f2-4fb6-a1eb-2533ca692cf7">
            <path
               style="stroke:none"
               d="m 7.671875,-6.6875 c 0,-0.078125 -0.0625,-0.125 -0.140625,-0.125 -0.25,0 -0.546875,0.03125 -0.8125,0.03125 -0.328125,0 -0.671875,-0.03125 -0.984375,-0.03125 -0.0625,0 -0.1875,0 -0.1875,0.1875 0,0.109375 0.078125,0.125 0.15625,0.125 0.265625,0.015625 0.453125,0.125 0.453125,0.328125 0,0.15625 -0.140625,0.375 -0.140625,0.375 l -3.0625,4.875 -0.6875,-5.28125 C 2.265625,-6.375 2.5,-6.5 2.953125,-6.5 c 0.140625,0 0.25,0 0.25,-0.203125 0,-0.078125 -0.078125,-0.109375 -0.125,-0.109375 -0.40625,0 -0.828125,0.03125 -1.25,0.03125 -0.171875,0 -0.359375,0 -0.546875,0 -0.171875,0 -0.359375,-0.03125 -0.53125,-0.03125 -0.078125,0 -0.1875,0 -0.1875,0.1875 0,0.125 0.078125,0.125 0.25,0.125 0.546875,0 0.5625,0.09375 0.59375,0.34375 L 2.1875,-0.015625 C 2.21875,0.1875 2.265625,0.21875 2.390625,0.21875 c 0.15625,0 0.203125,-0.046875 0.28125,-0.171875 l 3.59375,-5.71875 C 6.75,-6.453125 7.171875,-6.484375 7.53125,-6.5 c 0.125,-0.015625 0.140625,-0.1875 0.140625,-0.1875 z m 0,0"
               id="id-5214d45e-9b61-45bc-90ef-ace82d2e1cd1" />
          </symbol>
          <symbol
             overflow="visible"
             id="id-7ba06c24-2cd7-4eac-baf1-1b6f180cf495">
            <path
               style="stroke:none"
               d=""
               id="id-ab084c4a-dafb-4113-bc14-b4bffd283cfe" />
          </symbol>
          <symbol
             overflow="visible"
             id="id-0ce87be8-f58b-4940-a0a7-e8bdbcded299">
            <path
               style="stroke:none"
               d="m 3.984375,-1 c 0,-0.09375 -0.09375,-0.09375 -0.109375,-0.09375 -0.109375,0 -0.109375,0.03125 -0.15625,0.21875 C 3.625,-0.53125 3.5,-0.125 3.203125,-0.125 3.03125,-0.125 2.96875,-0.28125 2.96875,-0.46875 c 0,-0.125 0.015625,-0.1875 0.046875,-0.28125 l 0.96875,-3.875 C 3.984375,-4.640625 4,-4.734375 4,-4.734375 4,-4.78125 3.984375,-4.84375 3.890625,-4.84375 3.75,-4.84375 3.171875,-4.78125 3,-4.765625 c -0.046875,0 -0.15625,0.015625 -0.15625,0.15625 0,0.09375 0.109375,0.09375 0.1875,0.09375 0.328125,0 0.328125,0.0625 0.328125,0.109375 0,0.046875 0,0.09375 -0.015625,0.15625 L 2.9375,-2.65625 c -0.140625,-0.234375 -0.375,-0.421875 -0.71875,-0.421875 -0.890625,0 -1.796875,0.984375 -1.796875,1.984375 0,0.6875 0.453125,1.15625 1.0625,1.15625 0.375,0 0.703125,-0.203125 0.984375,-0.484375 C 2.59375,0 3,0.0625 3.1875,0.0625 c 0.25,0 0.421875,-0.140625 0.546875,-0.359375 0.15625,-0.28125 0.25,-0.671875 0.25,-0.703125 z M 2.828125,-2.171875 2.5,-0.875 C 2.453125,-0.671875 2.296875,-0.53125 2.140625,-0.40625 2.078125,-0.34375 1.796875,-0.125 1.5,-0.125 c -0.265625,0 -0.515625,-0.1875 -0.515625,-0.671875 0,-0.375 0.203125,-1.140625 0.375,-1.421875 0.3125,-0.5625 0.671875,-0.65625 0.859375,-0.65625 0.484375,0 0.625,0.53125 0.625,0.609375 0,0.015625 -0.015625,0.078125 -0.015625,0.09375 z m 0,0"
               id="id-077b1334-8d02-4aad-912c-cdb5c56a6b58" />
          </symbol>
          <symbol
             overflow="visible"
             id="id-d837b893-3a15-4d35-8e24-7c2e32173477">
            <path
               style="stroke:none"
               d=""
               id="id-ae0bae9a-1e96-4934-98bb-f2bd4f469b79" />
          </symbol>
          <symbol
             overflow="visible"
             id="id-81f93e10-980e-4203-a333-9787f6952d7a">
            <path
               style="stroke:none"
               d="M 3.296875,0 V -0.25 H 3.03125 c -0.703125,0 -0.703125,-0.09375 -0.703125,-0.328125 V -4.4375 c 0,-0.1875 0,-0.1875 -0.203125,-0.1875 -0.453125,0.4375 -1.078125,0.4375 -1.359375,0.4375 v 0.25 c 0.15625,0 0.625,0 1,-0.1875 v 3.546875 c 0,0.234375 0,0.328125 -0.6875,0.328125 H 0.8125 V 0 l 1.234375,-0.03125 z m 0,0"
               id="id-6e42d858-d474-42e8-9fee-51431eeec84f" />
          </symbol>
        </g>
      </defs>
      <g
         id="id-7b47ba0f-b2b0-4dcd-a7e3-e1822b996e4e"
         transform="translate(-149.275, -127.953)">
        <g
           style="fill:#000000;fill-opacity:1"
           id="id-97c75e7a-1386-41d6-9dc8-7cf542dcf5d8">
          <g
             transform="translate(148.712, 134.765)"
             id="g2451">
            <path
               style="stroke:none"
               d="m 7.671875,-6.6875 c 0,-0.078125 -0.0625,-0.125 -0.140625,-0.125 -0.25,0 -0.546875,0.03125 -0.8125,0.03125 -0.328125,0 -0.671875,-0.03125 -0.984375,-0.03125 -0.0625,0 -0.1875,0 -0.1875,0.1875 0,0.109375 0.078125,0.125 0.15625,0.125 0.265625,0.015625 0.453125,0.125 0.453125,0.328125 0,0.15625 -0.140625,0.375 -0.140625,0.375 l -3.0625,4.875 -0.6875,-5.28125 C 2.265625,-6.375 2.5,-6.5 2.953125,-6.5 c 0.140625,0 0.25,0 0.25,-0.203125 0,-0.078125 -0.078125,-0.109375 -0.125,-0.109375 -0.40625,0 -0.828125,0.03125 -1.25,0.03125 -0.171875,0 -0.359375,0 -0.546875,0 -0.171875,0 -0.359375,-0.03125 -0.53125,-0.03125 -0.078125,0 -0.1875,0 -0.1875,0.1875 0,0.125 0.078125,0.125 0.25,0.125 0.546875,0 0.5625,0.09375 0.59375,0.34375 L 2.1875,-0.015625 C 2.21875,0.1875 2.265625,0.21875 2.390625,0.21875 c 0.15625,0 0.203125,-0.046875 0.28125,-0.171875 l 3.59375,-5.71875 C 6.75,-6.453125 7.171875,-6.484375 7.53125,-6.5 c 0.125,-0.015625 0.140625,-0.1875 0.140625,-0.1875 z m 0,0"
               id="id-2d440ce7-3824-4985-ba01-d8edd435738f" />
          </g>
        </g>
        <g
           style="fill:#000000;fill-opacity:1"
           id="id-ffbeca9d-a4aa-4c46-be19-5a3ec4c13bda">
          <g
             transform="translate(154.524, 136.259)"
             id="g2455">
            <path
               style="stroke:none"
               d="m 3.984375,-1 c 0,-0.09375 -0.09375,-0.09375 -0.109375,-0.09375 -0.109375,0 -0.109375,0.03125 -0.15625,0.21875 C 3.625,-0.53125 3.5,-0.125 3.203125,-0.125 3.03125,-0.125 2.96875,-0.28125 2.96875,-0.46875 c 0,-0.125 0.015625,-0.1875 0.046875,-0.28125 l 0.96875,-3.875 C 3.984375,-4.640625 4,-4.734375 4,-4.734375 4,-4.78125 3.984375,-4.84375 3.890625,-4.84375 3.75,-4.84375 3.171875,-4.78125 3,-4.765625 c -0.046875,0 -0.15625,0.015625 -0.15625,0.15625 0,0.09375 0.109375,0.09375 0.1875,0.09375 0.328125,0 0.328125,0.0625 0.328125,0.109375 0,0.046875 0,0.09375 -0.015625,0.15625 L 2.9375,-2.65625 c -0.140625,-0.234375 -0.375,-0.421875 -0.71875,-0.421875 -0.890625,0 -1.796875,0.984375 -1.796875,1.984375 0,0.6875 0.453125,1.15625 1.0625,1.15625 0.375,0 0.703125,-0.203125 0.984375,-0.484375 C 2.59375,0 3,0.0625 3.1875,0.0625 c 0.25,0 0.421875,-0.140625 0.546875,-0.359375 0.15625,-0.28125 0.25,-0.671875 0.25,-0.703125 z M 2.828125,-2.171875 2.5,-0.875 C 2.453125,-0.671875 2.296875,-0.53125 2.140625,-0.40625 2.078125,-0.34375 1.796875,-0.125 1.5,-0.125 c -0.265625,0 -0.515625,-0.1875 -0.515625,-0.671875 0,-0.375 0.203125,-1.140625 0.375,-1.421875 0.3125,-0.5625 0.671875,-0.65625 0.859375,-0.65625 0.484375,0 0.625,0.53125 0.625,0.609375 0,0.015625 -0.015625,0.078125 -0.015625,0.09375 z m 0,0"
               id="id-99da6d2c-6344-4b5b-bec4-45710bd64ee8" />
          </g>
        </g>
        <g
           style="fill:#000000;fill-opacity:1"
           id="id-b6a0dd7f-3388-4aec-b404-d3c7c4dec022">
          <g
             transform="translate(158.671, 136.259)"
             id="g2459">
            <path
               style="stroke:none"
               d="M 3.296875,0 V -0.25 H 3.03125 c -0.703125,0 -0.703125,-0.09375 -0.703125,-0.328125 V -4.4375 c 0,-0.1875 0,-0.1875 -0.203125,-0.1875 -0.453125,0.4375 -1.078125,0.4375 -1.359375,0.4375 v 0.25 c 0.15625,0 0.625,0 1,-0.1875 v 3.546875 c 0,0.234375 0,0.328125 -0.6875,0.328125 H 0.8125 V 0 l 1.234375,-0.03125 z m 0,0"
               id="id-a1565c71-829f-40df-a1c2-f5db8696eae5" />
          </g>
        </g>
      </g>
    </g>
    <g
       transform="matrix(0.352778 0 0 0.352778 88.133 101.626)"
       ns1:version="1.1.0"
       ns1:texconverter="pdflatex"
       ns1:pdfconverter="inkscape"
       ns1:text="$V$"
       ns1:preamble="/home/mirmik/.config/inkscape/extensions/textext/default_packages.tex"
       ns1:scale="1.0"
       ns1:alignment="middle center"
       ns1:inkscapeversion="0.92.5"
       ns1:jacobian_sqrt="0.352778"
       id="g2654">
      <defs
         id="id-fd693c32-ef70-498b-bcd2-c911a7251b30">
        <g
           id="id-935d5461-8702-4e02-9ee6-b7224e091fb8">
          <symbol
             overflow="visible"
             id="id-599ead7e-324f-4ed3-a983-cba3a6f0d43c">
            <path
               style="stroke:none"
               d=""
               id="id-64119984-06bd-45c9-b2bb-cef58e30b82b" />
          </symbol>
          <symbol
             overflow="visible"
             id="id-11ecec07-514a-4aa1-b6cc-b0cbd81178fa">
            <path
               style="stroke:none"
               d="m 7.671875,-6.6875 c 0,-0.078125 -0.0625,-0.125 -0.140625,-0.125 -0.25,0 -0.546875,0.03125 -0.8125,0.03125 -0.328125,0 -0.671875,-0.03125 -0.984375,-0.03125 -0.0625,0 -0.1875,0 -0.1875,0.1875 0,0.109375 0.078125,0.125 0.15625,0.125 0.265625,0.015625 0.453125,0.125 0.453125,0.328125 0,0.15625 -0.140625,0.375 -0.140625,0.375 l -3.0625,4.875 -0.6875,-5.28125 C 2.265625,-6.375 2.5,-6.5 2.953125,-6.5 c 0.140625,0 0.25,0 0.25,-0.203125 0,-0.078125 -0.078125,-0.109375 -0.125,-0.109375 -0.40625,0 -0.828125,0.03125 -1.25,0.03125 -0.171875,0 -0.359375,0 -0.546875,0 -0.171875,0 -0.359375,-0.03125 -0.53125,-0.03125 -0.078125,0 -0.1875,0 -0.1875,0.1875 0,0.125 0.078125,0.125 0.25,0.125 0.546875,0 0.5625,0.09375 0.59375,0.34375 L 2.1875,-0.015625 C 2.21875,0.1875 2.265625,0.21875 2.390625,0.21875 c 0.15625,0 0.203125,-0.046875 0.28125,-0.171875 l 3.59375,-5.71875 C 6.75,-6.453125 7.171875,-6.484375 7.53125,-6.5 c 0.125,-0.015625 0.140625,-0.1875 0.140625,-0.1875 z m 0,0"
               id="id-1f4ee411-4abf-4d98-a1e0-c2bc599ad9ec" />
          </symbol>
        </g>
      </defs>
      <g
         id="id-f212f2a0-41df-4dd6-b387-e2f307ee8339"
         transform="translate(-149.275, -127.953)">
        <g
           style="fill:#000000;fill-opacity:1"
           id="id-1779c3ad-73ba-4202-83c4-03541fe14437">
          <g
             transform="translate(148.712, 134.765)"
             id="g2650">
            <path
               style="stroke:none"
               d="m 7.671875,-6.6875 c 0,-0.078125 -0.0625,-0.125 -0.140625,-0.125 -0.25,0 -0.546875,0.03125 -0.8125,0.03125 -0.328125,0 -0.671875,-0.03125 -0.984375,-0.03125 -0.0625,0 -0.1875,0 -0.1875,0.1875 0,0.109375 0.078125,0.125 0.15625,0.125 0.265625,0.015625 0.453125,0.125 0.453125,0.328125 0,0.15625 -0.140625,0.375 -0.140625,0.375 l -3.0625,4.875 -0.6875,-5.28125 C 2.265625,-6.375 2.5,-6.5 2.953125,-6.5 c 0.140625,0 0.25,0 0.25,-0.203125 0,-0.078125 -0.078125,-0.109375 -0.125,-0.109375 -0.40625,0 -0.828125,0.03125 -1.25,0.03125 -0.171875,0 -0.359375,0 -0.546875,0 -0.171875,0 -0.359375,-0.03125 -0.53125,-0.03125 -0.078125,0 -0.1875,0 -0.1875,0.1875 0,0.125 0.078125,0.125 0.25,0.125 0.546875,0 0.5625,0.09375 0.59375,0.34375 L 2.1875,-0.015625 C 2.21875,0.1875 2.265625,0.21875 2.390625,0.21875 c 0.15625,0 0.203125,-0.046875 0.28125,-0.171875 l 3.59375,-5.71875 C 6.75,-6.453125 7.171875,-6.484375 7.53125,-6.5 c 0.125,-0.015625 0.140625,-0.1875 0.140625,-0.1875 z m 0,0"
               id="id-46f61df5-adf4-425e-ae8d-92eacc17c958" />
          </g>
        </g>
      </g>
    </g>
    <g
       transform="matrix(0.352778 0 0 0.352778 102.759 97.7971)"
       ns1:version="1.1.0"
       ns1:texconverter="pdflatex"
       ns1:pdfconverter="inkscape"
       ns1:text="$V_{d2}$"
       ns1:preamble="/home/mirmik/.config/inkscape/extensions/textext/default_packages.tex"
       ns1:scale="1.0000000283464388"
       ns1:alignment="middle center"
       ns1:inkscapeversion="0.92.5"
       ns1:jacobian_sqrt="0.352778"
       id="g2833">
      <defs
         id="id-ec29bc7a-4192-4140-b02f-f689e9ba1c83">
        <g
           id="id-50cfd0ce-e0cd-4595-a60e-a898267bb636">
          <symbol
             overflow="visible"
             id="id-d31845f7-f856-4947-aae9-9c16e737909a">
            <path
               style="stroke:none"
               d=""
               id="id-d3772eeb-ad4e-43e3-8b0a-312a32bdb174" />
          </symbol>
          <symbol
             overflow="visible"
             id="id-1d3fb21f-5a0a-4c73-ac16-3380e3820d1a">
            <path
               style="stroke:none"
               d="m 7.671875,-6.6875 c 0,-0.078125 -0.0625,-0.125 -0.140625,-0.125 -0.25,0 -0.546875,0.03125 -0.8125,0.03125 -0.328125,0 -0.671875,-0.03125 -0.984375,-0.03125 -0.0625,0 -0.1875,0 -0.1875,0.1875 0,0.109375 0.078125,0.125 0.15625,0.125 0.265625,0.015625 0.453125,0.125 0.453125,0.328125 0,0.15625 -0.140625,0.375 -0.140625,0.375 l -3.0625,4.875 -0.6875,-5.28125 C 2.265625,-6.375 2.5,-6.5 2.953125,-6.5 c 0.140625,0 0.25,0 0.25,-0.203125 0,-0.078125 -0.078125,-0.109375 -0.125,-0.109375 -0.40625,0 -0.828125,0.03125 -1.25,0.03125 -0.171875,0 -0.359375,0 -0.546875,0 -0.171875,0 -0.359375,-0.03125 -0.53125,-0.03125 -0.078125,0 -0.1875,0 -0.1875,0.1875 0,0.125 0.078125,0.125 0.25,0.125 0.546875,0 0.5625,0.09375 0.59375,0.34375 L 2.1875,-0.015625 C 2.21875,0.1875 2.265625,0.21875 2.390625,0.21875 c 0.15625,0 0.203125,-0.046875 0.28125,-0.171875 l 3.59375,-5.71875 C 6.75,-6.453125 7.171875,-6.484375 7.53125,-6.5 c 0.125,-0.015625 0.140625,-0.1875 0.140625,-0.1875 z m 0,0"
               id="id-15e91a53-2c77-4ccc-bba3-d75a3cf42897" />
          </symbol>
          <symbol
             overflow="visible"
             id="id-becb6159-87dc-4647-9cf2-9ac21e1e8fd5">
            <path
               style="stroke:none"
               d=""
               id="id-29dd08f5-f25a-4e06-9ab6-b27d1344b334" />
          </symbol>
          <symbol
             overflow="visible"
             id="id-ecb8ecdd-30ba-4ea7-b078-f3a3560164b1">
            <path
               style="stroke:none"
               d="m 3.984375,-1 c 0,-0.09375 -0.09375,-0.09375 -0.109375,-0.09375 -0.109375,0 -0.109375,0.03125 -0.15625,0.21875 C 3.625,-0.53125 3.5,-0.125 3.203125,-0.125 3.03125,-0.125 2.96875,-0.28125 2.96875,-0.46875 c 0,-0.125 0.015625,-0.1875 0.046875,-0.28125 l 0.96875,-3.875 C 3.984375,-4.640625 4,-4.734375 4,-4.734375 4,-4.78125 3.984375,-4.84375 3.890625,-4.84375 3.75,-4.84375 3.171875,-4.78125 3,-4.765625 c -0.046875,0 -0.15625,0.015625 -0.15625,0.15625 0,0.09375 0.109375,0.09375 0.1875,0.09375 0.328125,0 0.328125,0.0625 0.328125,0.109375 0,0.046875 0,0.09375 -0.015625,0.15625 L 2.9375,-2.65625 c -0.140625,-0.234375 -0.375,-0.421875 -0.71875,-0.421875 -0.890625,0 -1.796875,0.984375 -1.796875,1.984375 0,0.6875 0.453125,1.15625 1.0625,1.15625 0.375,0 0.703125,-0.203125 0.984375,-0.484375 C 2.59375,0 3,0.0625 3.1875,0.0625 c 0.25,0 0.421875,-0.140625 0.546875,-0.359375 0.15625,-0.28125 0.25,-0.671875 0.25,-0.703125 z M 2.828125,-2.171875 2.5,-0.875 C 2.453125,-0.671875 2.296875,-0.53125 2.140625,-0.40625 2.078125,-0.34375 1.796875,-0.125 1.5,-0.125 c -0.265625,0 -0.515625,-0.1875 -0.515625,-0.671875 0,-0.375 0.203125,-1.140625 0.375,-1.421875 0.3125,-0.5625 0.671875,-0.65625 0.859375,-0.65625 0.484375,0 0.625,0.53125 0.625,0.609375 0,0.015625 -0.015625,0.078125 -0.015625,0.09375 z m 0,0"
               id="id-7beb7721-7a3b-45f1-baba-25b045655e94" />
          </symbol>
          <symbol
             overflow="visible"
             id="id-fc6bcd53-5e6c-42ca-a3e8-75d975342c2a">
            <path
               style="stroke:none"
               d=""
               id="id-48613244-8ba4-4f16-b273-d4cb885bb603" />
          </symbol>
          <symbol
             overflow="visible"
             id="id-73806580-9854-46cd-a714-7cb320f1de2e">
            <path
               style="stroke:none"
               d="M 3.515625,-1.265625 H 3.28125 c -0.015625,0.15625 -0.09375,0.5625 -0.1875,0.625 C 3.046875,-0.59375 2.515625,-0.59375 2.40625,-0.59375 H 1.125 c 0.734375,-0.640625 0.984375,-0.84375 1.390625,-1.171875 0.515625,-0.40625 1,-0.84375 1,-1.5 0,-0.84375 -0.734375,-1.359375 -1.625,-1.359375 -0.859375,0 -1.453125,0.609375 -1.453125,1.25 0,0.34375 0.296875,0.390625 0.375,0.390625 0.15625,0 0.359375,-0.125 0.359375,-0.375 0,-0.125 -0.046875,-0.375 -0.40625,-0.375 C 0.984375,-4.21875 1.453125,-4.375 1.78125,-4.375 c 0.703125,0 1.0625,0.546875 1.0625,1.109375 0,0.609375 -0.4375,1.078125 -0.65625,1.328125 L 0.515625,-0.265625 C 0.4375,-0.203125 0.4375,-0.1875 0.4375,0 h 2.875 z m 0,0"
               id="id-c9d92d8d-6e19-4b75-9781-994bd128b9b1" />
          </symbol>
        </g>
      </defs>
      <g
         id="id-eecb5713-2317-4532-b399-2f98ef7f7bbd"
         transform="translate(-149.275, -127.953)">
        <g
           style="fill:#000000;fill-opacity:1"
           id="id-4df7fb78-79ee-4cd7-93c8-884f53a4a45a">
          <g
             transform="translate(148.712, 134.765)"
             id="g2821">
            <path
               style="stroke:none"
               d="m 7.671875,-6.6875 c 0,-0.078125 -0.0625,-0.125 -0.140625,-0.125 -0.25,0 -0.546875,0.03125 -0.8125,0.03125 -0.328125,0 -0.671875,-0.03125 -0.984375,-0.03125 -0.0625,0 -0.1875,0 -0.1875,0.1875 0,0.109375 0.078125,0.125 0.15625,0.125 0.265625,0.015625 0.453125,0.125 0.453125,0.328125 0,0.15625 -0.140625,0.375 -0.140625,0.375 l -3.0625,4.875 -0.6875,-5.28125 C 2.265625,-6.375 2.5,-6.5 2.953125,-6.5 c 0.140625,0 0.25,0 0.25,-0.203125 0,-0.078125 -0.078125,-0.109375 -0.125,-0.109375 -0.40625,0 -0.828125,0.03125 -1.25,0.03125 -0.171875,0 -0.359375,0 -0.546875,0 -0.171875,0 -0.359375,-0.03125 -0.53125,-0.03125 -0.078125,0 -0.1875,0 -0.1875,0.1875 0,0.125 0.078125,0.125 0.25,0.125 0.546875,0 0.5625,0.09375 0.59375,0.34375 L 2.1875,-0.015625 C 2.21875,0.1875 2.265625,0.21875 2.390625,0.21875 c 0.15625,0 0.203125,-0.046875 0.28125,-0.171875 l 3.59375,-5.71875 C 6.75,-6.453125 7.171875,-6.484375 7.53125,-6.5 c 0.125,-0.015625 0.140625,-0.1875 0.140625,-0.1875 z m 0,0"
               id="id-3b046e38-8374-453b-94d9-031f5ad605d4" />
          </g>
        </g>
        <g
           style="fill:#000000;fill-opacity:1"
           id="id-89d4ac20-16e3-49a7-bd0a-b912dd7bf920">
          <g
             transform="translate(154.524, 136.259)"
             id="g2825">
            <path
               style="stroke:none"
               d="m 3.984375,-1 c 0,-0.09375 -0.09375,-0.09375 -0.109375,-0.09375 -0.109375,0 -0.109375,0.03125 -0.15625,0.21875 C 3.625,-0.53125 3.5,-0.125 3.203125,-0.125 3.03125,-0.125 2.96875,-0.28125 2.96875,-0.46875 c 0,-0.125 0.015625,-0.1875 0.046875,-0.28125 l 0.96875,-3.875 C 3.984375,-4.640625 4,-4.734375 4,-4.734375 4,-4.78125 3.984375,-4.84375 3.890625,-4.84375 3.75,-4.84375 3.171875,-4.78125 3,-4.765625 c -0.046875,0 -0.15625,0.015625 -0.15625,0.15625 0,0.09375 0.109375,0.09375 0.1875,0.09375 0.328125,0 0.328125,0.0625 0.328125,0.109375 0,0.046875 0,0.09375 -0.015625,0.15625 L 2.9375,-2.65625 c -0.140625,-0.234375 -0.375,-0.421875 -0.71875,-0.421875 -0.890625,0 -1.796875,0.984375 -1.796875,1.984375 0,0.6875 0.453125,1.15625 1.0625,1.15625 0.375,0 0.703125,-0.203125 0.984375,-0.484375 C 2.59375,0 3,0.0625 3.1875,0.0625 c 0.25,0 0.421875,-0.140625 0.546875,-0.359375 0.15625,-0.28125 0.25,-0.671875 0.25,-0.703125 z M 2.828125,-2.171875 2.5,-0.875 C 2.453125,-0.671875 2.296875,-0.53125 2.140625,-0.40625 2.078125,-0.34375 1.796875,-0.125 1.5,-0.125 c -0.265625,0 -0.515625,-0.1875 -0.515625,-0.671875 0,-0.375 0.203125,-1.140625 0.375,-1.421875 0.3125,-0.5625 0.671875,-0.65625 0.859375,-0.65625 0.484375,0 0.625,0.53125 0.625,0.609375 0,0.015625 -0.015625,0.078125 -0.015625,0.09375 z m 0,0"
               id="id-591b5b55-347b-41b4-a633-8b083c9f198f" />
          </g>
        </g>
        <g
           style="fill:#000000;fill-opacity:1"
           id="id-dec585b4-db81-4868-9f83-0689a15c932f">
          <g
             transform="translate(158.671, 136.259)"
             id="g2829">
            <path
               style="stroke:none"
               d="M 3.515625,-1.265625 H 3.28125 c -0.015625,0.15625 -0.09375,0.5625 -0.1875,0.625 C 3.046875,-0.59375 2.515625,-0.59375 2.40625,-0.59375 H 1.125 c 0.734375,-0.640625 0.984375,-0.84375 1.390625,-1.171875 0.515625,-0.40625 1,-0.84375 1,-1.5 0,-0.84375 -0.734375,-1.359375 -1.625,-1.359375 -0.859375,0 -1.453125,0.609375 -1.453125,1.25 0,0.34375 0.296875,0.390625 0.375,0.390625 0.15625,0 0.359375,-0.125 0.359375,-0.375 0,-0.125 -0.046875,-0.375 -0.40625,-0.375 C 0.984375,-4.21875 1.453125,-4.375 1.78125,-4.375 c 0.703125,0 1.0625,0.546875 1.0625,1.109375 0,0.609375 -0.4375,1.078125 -0.65625,1.328125 L 0.515625,-0.265625 C 0.4375,-0.203125 0.4375,-0.1875 0.4375,0 h 2.875 z m 0,0"
               id="id-5f49b7c0-e0ad-483b-b45c-3c741802161a" />
          </g>
        </g>
      </g>
    </g>
    <g
       transform="matrix(0.352778 0 0 0.352778 104.155 102.987)"
       ns1:version="1.1.0"
       ns1:texconverter="pdflatex"
       ns1:pdfconverter="inkscape"
       ns1:text="$V_2$"
       ns1:preamble="/home/mirmik/.config/inkscape/extensions/textext/default_packages.tex"
       ns1:scale="1.0000000566928784"
       ns1:alignment="middle center"
       ns1:inkscapeversion="0.92.5"
       ns1:jacobian_sqrt="0.352778"
       id="g3025">
      <defs
         id="id-0c3dfb2d-f895-4761-b490-189431e0ba85">
        <g
           id="id-32aaaa00-d1c1-4d83-8131-a1d5e0d36f40">
          <symbol
             overflow="visible"
             id="id-fb23aedc-5ce4-430a-a731-438d75746889">
            <path
               style="stroke:none"
               d=""
               id="id-6c617b1b-2f2f-43a0-8a19-30adc90e3737" />
          </symbol>
          <symbol
             overflow="visible"
             id="id-e52c0e49-440c-4c87-944b-7e1a84516531">
            <path
               style="stroke:none"
               d="m 7.671875,-6.6875 c 0,-0.078125 -0.0625,-0.125 -0.140625,-0.125 -0.25,0 -0.546875,0.03125 -0.8125,0.03125 -0.328125,0 -0.671875,-0.03125 -0.984375,-0.03125 -0.0625,0 -0.1875,0 -0.1875,0.1875 0,0.109375 0.078125,0.125 0.15625,0.125 0.265625,0.015625 0.453125,0.125 0.453125,0.328125 0,0.15625 -0.140625,0.375 -0.140625,0.375 l -3.0625,4.875 -0.6875,-5.28125 C 2.265625,-6.375 2.5,-6.5 2.953125,-6.5 c 0.140625,0 0.25,0 0.25,-0.203125 0,-0.078125 -0.078125,-0.109375 -0.125,-0.109375 -0.40625,0 -0.828125,0.03125 -1.25,0.03125 -0.171875,0 -0.359375,0 -0.546875,0 -0.171875,0 -0.359375,-0.03125 -0.53125,-0.03125 -0.078125,0 -0.1875,0 -0.1875,0.1875 0,0.125 0.078125,0.125 0.25,0.125 0.546875,0 0.5625,0.09375 0.59375,0.34375 L 2.1875,-0.015625 C 2.21875,0.1875 2.265625,0.21875 2.390625,0.21875 c 0.15625,0 0.203125,-0.046875 0.28125,-0.171875 l 3.59375,-5.71875 C 6.75,-6.453125 7.171875,-6.484375 7.53125,-6.5 c 0.125,-0.015625 0.140625,-0.1875 0.140625,-0.1875 z m 0,0"
               id="id-16f60fba-15ed-4901-8268-cdd7e043b6ab" />
          </symbol>
          <symbol
             overflow="visible"
             id="id-586551e8-77e4-4a0f-82af-220c804b385e">
            <path
               style="stroke:none"
               d=""
               id="id-20bf4d45-5a50-4e19-8092-a7cb96ca15fb" />
          </symbol>
          <symbol
             overflow="visible"
             id="id-23cc883e-6b88-4ceb-b27f-4037d0b0dfa7">
            <path
               style="stroke:none"
               d="M 3.515625,-1.265625 H 3.28125 c -0.015625,0.15625 -0.09375,0.5625 -0.1875,0.625 C 3.046875,-0.59375 2.515625,-0.59375 2.40625,-0.59375 H 1.125 c 0.734375,-0.640625 0.984375,-0.84375 1.390625,-1.171875 0.515625,-0.40625 1,-0.84375 1,-1.5 0,-0.84375 -0.734375,-1.359375 -1.625,-1.359375 -0.859375,0 -1.453125,0.609375 -1.453125,1.25 0,0.34375 0.296875,0.390625 0.375,0.390625 0.15625,0 0.359375,-0.125 0.359375,-0.375 0,-0.125 -0.046875,-0.375 -0.40625,-0.375 C 0.984375,-4.21875 1.453125,-4.375 1.78125,-4.375 c 0.703125,0 1.0625,0.546875 1.0625,1.109375 0,0.609375 -0.4375,1.078125 -0.65625,1.328125 L 0.515625,-0.265625 C 0.4375,-0.203125 0.4375,-0.1875 0.4375,0 h 2.875 z m 0,0"
               id="id-a2fa8fb1-e38a-4735-8a89-a94915512fe0" />
          </symbol>
        </g>
      </defs>
      <g
         id="id-a100026a-012a-4147-9b72-c08749622505"
         transform="translate(-149.275, -127.953)">
        <g
           style="fill:#000000;fill-opacity:1"
           id="id-10991012-2494-4738-a525-5cc910abcb80">
          <g
             transform="translate(148.712, 134.765)"
             id="g3017">
            <path
               style="stroke:none"
               d="m 7.671875,-6.6875 c 0,-0.078125 -0.0625,-0.125 -0.140625,-0.125 -0.25,0 -0.546875,0.03125 -0.8125,0.03125 -0.328125,0 -0.671875,-0.03125 -0.984375,-0.03125 -0.0625,0 -0.1875,0 -0.1875,0.1875 0,0.109375 0.078125,0.125 0.15625,0.125 0.265625,0.015625 0.453125,0.125 0.453125,0.328125 0,0.15625 -0.140625,0.375 -0.140625,0.375 l -3.0625,4.875 -0.6875,-5.28125 C 2.265625,-6.375 2.5,-6.5 2.953125,-6.5 c 0.140625,0 0.25,0 0.25,-0.203125 0,-0.078125 -0.078125,-0.109375 -0.125,-0.109375 -0.40625,0 -0.828125,0.03125 -1.25,0.03125 -0.171875,0 -0.359375,0 -0.546875,0 -0.171875,0 -0.359375,-0.03125 -0.53125,-0.03125 -0.078125,0 -0.1875,0 -0.1875,0.1875 0,0.125 0.078125,0.125 0.25,0.125 0.546875,0 0.5625,0.09375 0.59375,0.34375 L 2.1875,-0.015625 C 2.21875,0.1875 2.265625,0.21875 2.390625,0.21875 c 0.15625,0 0.203125,-0.046875 0.28125,-0.171875 l 3.59375,-5.71875 C 6.75,-6.453125 7.171875,-6.484375 7.53125,-6.5 c 0.125,-0.015625 0.140625,-0.1875 0.140625,-0.1875 z m 0,0"
               id="id-ae989902-771a-4353-8cda-6dc702e644dc" />
          </g>
        </g>
        <g
           style="fill:#000000;fill-opacity:1"
           id="id-7dfd32e7-0c0b-490d-9954-2d7d48896188">
          <g
             transform="translate(154.524, 136.259)"
             id="g3021">
            <path
               style="stroke:none"
               d="M 3.515625,-1.265625 H 3.28125 c -0.015625,0.15625 -0.09375,0.5625 -0.1875,0.625 C 3.046875,-0.59375 2.515625,-0.59375 2.40625,-0.59375 H 1.125 c 0.734375,-0.640625 0.984375,-0.84375 1.390625,-1.171875 0.515625,-0.40625 1,-0.84375 1,-1.5 0,-0.84375 -0.734375,-1.359375 -1.625,-1.359375 -0.859375,0 -1.453125,0.609375 -1.453125,1.25 0,0.34375 0.296875,0.390625 0.375,0.390625 0.15625,0 0.359375,-0.125 0.359375,-0.375 0,-0.125 -0.046875,-0.375 -0.40625,-0.375 C 0.984375,-4.21875 1.453125,-4.375 1.78125,-4.375 c 0.703125,0 1.0625,0.546875 1.0625,1.109375 0,0.609375 -0.4375,1.078125 -0.65625,1.328125 L 0.515625,-0.265625 C 0.4375,-0.203125 0.4375,-0.1875 0.4375,0 h 2.875 z m 0,0"
               id="id-9e3a659c-2fbb-478f-93d1-7c810f5095b6" />
          </g>
        </g>
      </g>
    </g>
  </g>
</svg>
